<?xml version="1.0" standalone="no"?>
<!DOCTYPE svg PUBLIC "-//W3C//DTD SVG 20010904//EN"
 "http://www.w3.org/TR/2001/REC-SVG-20010904/DTD/svg10.dtd">
<svg version="1.0" xmlns="http://www.w3.org/2000/svg"
 width="479.000000pt" height="479.000000pt" viewBox="0 0 479.000000 479.000000"
 preserveAspectRatio="xMidYMid meet">
<metadata>
Created by potrace 1.14, written by Peter Selinger 2001-2017
</metadata>
<g transform="translate(0.000000,479.000000) scale(0.100000,-0.100000)"
fill="#000000" stroke="none">
<path d="M520 4784 c0 -20 174 -116 249 -138 29 -8 101 -20 160 -26 141 -14
190 -31 254 -90 63 -57 102 -128 146 -262 25 -74 40 -104 63 -123 17 -14 37
-24 45 -21 8 4 19 6 24 6 5 0 28 17 52 39 81 74 117 78 227 25 56 -28 92 -38
141 -42 90 -6 95 2 103 173 3 72 11 168 18 215 10 79 10 88 -10 126 -20 40
-71 87 -119 113 -23 12 -1353 17 -1353 5z"/>
<path d="M517 4533 c-11 -11 -8 -251 3 -258 6 -4 10 42 10 129 0 75 -1 136 -3
136 -2 0 -7 -3 -10 -7z"/>
<path d="M208 4519 c-22 -12 -23 -29 -4 -29 11 0 16 -14 18 -47 4 -70 23 -54
26 22 3 68 -3 76 -40 54z"/>
<path d="M292 4518 c-13 -13 -16 -86 -4 -104 12 -18 42 -24 63 -13 17 9 20 19
17 67 -3 55 -4 57 -33 60 -17 2 -36 -3 -43 -10z m48 -59 c0 -28 -4 -39 -12
-37 -14 5 -23 51 -14 74 10 27 26 4 26 -37z"/>
<path d="M586 4484 c-17 -50 -14 -64 11 -64 9 0 21 -7 28 -16 10 -14 13 -13
30 12 12 19 14 29 7 32 -7 2 -12 10 -12 18 0 19 -17 18 -30 -3 -9 -15 -10 -14
-6 9 3 14 9 33 12 42 4 10 1 16 -9 16 -9 0 -21 -19 -31 -46z"/>
<path d="M777 4523 c-15 -14 -6 -25 17 -19 38 9 41 -12 7 -48 -43 -44 -40 -56
14 -56 25 0 45 5 45 10 0 6 -9 10 -20 10 -25 0 -25 4 1 39 17 23 19 32 10 50
-11 20 -59 30 -74 14z"/>
<path d="M892 4518 c-7 -7 -12 -33 -12 -60 0 -46 16 -68 49 -68 22 0 41 33 41
74 0 46 -13 66 -45 66 -12 0 -26 -5 -33 -12z m48 -59 c0 -28 -4 -39 -15 -39
-11 0 -15 11 -15 38 0 21 3 42 6 45 14 13 24 -6 24 -44z"/>
<path d="M420 4495 c0 -8 -7 -15 -15 -15 -8 0 -15 -5 -15 -10 0 -6 7 -13 15
-16 8 -4 15 -12 15 -20 0 -8 5 -14 10 -14 6 0 10 6 10 14 0 8 7 16 15 20 8 3
15 10 15 16 0 5 -7 10 -15 10 -8 0 -15 7 -15 15 0 8 -4 15 -10 15 -5 0 -10 -7
-10 -15z"/>
<path d="M3402 4470 c0 -37 1 -40 8 -20 7 23 11 23 14 1 3 -20 16 -23 16 -3 0
11 -6 25 -14 29 -7 4 -16 15 -19 23 -3 8 -5 -5 -5 -30z"/>
<path d="M3731 4472 c-1 -39 1 -43 21 -40 30 4 37 38 9 45 -11 3 -22 12 -24
22 -3 9 -5 -3 -6 -27z m33 -23 c-3 -5 -10 -7 -15 -3 -5 3 -7 10 -3 15 3 5 10
7 15 3 5 -3 7 -10 3 -15z"/>
<path d="M2730 4466 c0 -22 5 -36 13 -36 42 1 51 62 10 68 -20 3 -23 -1 -23
-32z m38 1 c2 -10 -3 -17 -12 -17 -10 0 -16 9 -16 21 0 24 23 21 28 -4z"/>
<path d="M2941 4463 c0 -21 3 -31 6 -23 4 8 13 20 21 26 17 12 8 34 -14 34
-10 0 -14 -11 -13 -37z m29 23 c0 -3 -4 -8 -10 -11 -5 -3 -10 -1 -10 4 0 6 5
11 10 11 6 0 10 -2 10 -4z"/>
<path d="M3179 4481 c-1 -12 -2 -27 -3 -33 -1 -7 11 -13 27 -14 16 -1 27 4 27
12 0 8 -5 14 -10 14 -6 0 -10 8 -8 17 2 10 -4 19 -14 21 -12 2 -18 -3 -19 -17z"/>
<path d="M3271 4463 c0 -21 3 -32 6 -25 3 9 9 10 17 3 9 -8 12 -1 13 24 1 28
-3 35 -18 35 -15 0 -19 -7 -18 -37z m29 17 c0 -5 -4 -10 -10 -10 -5 0 -10 5
-10 10 0 6 5 10 10 10 6 0 10 -4 10 -10z"/>
<path d="M3483 4484 c-3 -9 -2 -24 4 -33 12 -19 43 -27 43 -12 0 6 -9 11 -20
11 -27 0 -25 28 3 40 l22 9 -23 0 c-12 1 -25 -6 -29 -15z"/>
<path d="M2797 4466 c-6 -16 11 -36 30 -36 7 0 13 11 13 25 0 18 -5 25 -19 25
-10 0 -21 -6 -24 -14z m28 -6 c3 -5 1 -10 -4 -10 -6 0 -11 5 -11 10 0 6 2 10
4 10 3 0 8 -4 11 -10z"/>
<path d="M2861 4453 l1 -28 8 25 8 25 1 -24 c1 -19 4 -22 12 -14 15 15 4 43
-16 43 -10 0 -15 -9 -14 -27z"/>
<path d="M2987 4466 c-8 -20 20 -43 35 -28 14 14 3 42 -16 42 -7 0 -16 -6 -19
-14z"/>
<path d="M3041 4453 c1 -17 3 -21 6 -10 2 9 8 17 13 17 5 0 11 -8 13 -17 3
-11 5 -7 6 10 1 21 -4 27 -19 27 -15 0 -20 -6 -19 -27z"/>
<path d="M3090 4461 c0 -28 20 -37 21 -9 1 23 1 23 9 -2 l8 -25 1 28 c1 21 -4
27 -19 27 -13 0 -20 -7 -20 -19z"/>
<path d="M3332 4455 c0 -16 2 -22 5 -12 2 9 2 23 0 30 -3 6 -5 -1 -5 -18z"/>
<path d="M3353 4464 c-6 -17 13 -42 24 -30 4 4 1 11 -6 15 -11 7 -9 11 5 20
18 10 18 10 1 11 -10 0 -20 -7 -24 -16z"/>
<path d="M3544 4469 c-10 -17 23 -46 37 -32 7 7 9 19 6 27 -7 18 -33 21 -43 5z
m31 -8 c3 -5 1 -12 -5 -16 -5 -3 -10 1 -10 9 0 18 6 21 15 7z"/>
<path d="M3603 4464 c-3 -8 -1 -20 5 -26 15 -15 43 8 35 28 -7 19 -32 18 -40
-2z m27 -10 c0 -8 -5 -12 -10 -9 -6 4 -8 11 -5 16 9 14 15 11 15 -7z"/>
<path d="M3661 4453 l1 -28 8 25 8 25 2 -25 c2 -18 4 -20 7 -7 2 9 8 17 13 17
5 0 11 -8 14 -17 3 -11 4 -7 3 7 -2 19 -8 26 -29 28 -25 3 -28 0 -27 -25z"/>
<path d="M3793 4464 c-8 -21 13 -42 28 -27 13 13 5 43 -11 43 -6 0 -13 -7 -17
-16z"/>
<path d="M3843 4455 c0 -25 11 -33 21 -16 7 11 -3 41 -14 41 -4 0 -7 -11 -7
-25z"/>
<path d="M690 4455 c0 -12 8 -16 33 -13 17 2 32 8 32 13 0 6 -15 11 -32 13
-25 3 -33 -1 -33 -13z"/>
<path d="M673 4330 c0 -25 2 -35 4 -22 2 12 2 32 0 45 -2 12 -4 2 -4 -23z"/>
<path d="M3348 4362 c-29 -2 -38 -8 -40 -25 -5 -32 2 -625 8 -675 l5 -43 77 3
77 3 3 111 3 112 27 5 c15 3 33 0 41 -6 8 -7 36 -58 63 -114 l48 -103 90 0
c58 0 90 4 90 11 0 6 -27 64 -61 130 l-60 119 38 77 c35 71 38 83 38 163 -1
68 -5 94 -23 127 -25 47 -70 85 -123 102 -32 10 -200 12 -301 3z m219 -190 c6
-4 17 -20 23 -36 17 -46 -8 -76 -65 -76 l-45 0 0 60 0 60 38 0 c20 0 42 -4 49
-8z"/>
<path d="M2795 4350 c-11 -18 -10 -709 1 -720 7 -7 92 -9 240 -8 l229 3 3 78
c2 49 -1 84 -9 93 -9 11 -37 13 -145 7 l-134 -6 0 50 0 50 59 6 c33 3 64 8 70
12 6 3 11 37 11 75 0 78 -2 80 -86 80 l-54 0 0 50 0 49 138 3 137 3 3 93 3 92
-230 0 c-146 0 -232 -4 -236 -10z"/>
<path d="M268 4344 c10 -5 9 -9 -5 -19 -14 -11 -15 -16 -6 -26 6 -6 19 -9 27
-6 22 9 14 51 -10 54 -10 2 -13 0 -6 -3z m12 -34 c0 -5 -2 -10 -4 -10 -3 0 -8
5 -11 10 -3 6 -1 10 4 10 6 0 11 -4 11 -10z"/>
<path d="M313 4334 c-7 -18 16 -66 29 -58 4 3 8 21 8 40 0 36 -25 49 -37 18z
m27 -9 c0 -8 -4 -15 -10 -15 -5 0 -10 7 -10 15 0 8 5 15 10 15 6 0 10 -7 10
-15z"/>
<path d="M367 4338 c-5 -16 10 -48 23 -48 6 0 10 5 10 11 0 5 -4 7 -10 4 -5
-3 -10 -1 -10 4 0 6 7 11 16 11 9 0 14 6 12 13 -6 17 -35 21 -41 5z"/>
<path d="M610 4315 c0 -32 2 -35 19 -25 11 5 22 14 25 19 10 16 -5 41 -25 41
-15 0 -19 -7 -19 -35z m26 -2 c-10 -10 -19 5 -10 18 6 11 8 11 12 0 2 -7 1
-15 -2 -18z"/>
<path d="M708 4344 c10 -5 9 -9 -5 -19 -14 -11 -15 -16 -6 -26 6 -6 19 -9 28
-5 23 9 15 50 -10 53 -11 2 -14 0 -7 -3z"/>
<path d="M754 4330 c3 -14 6 -34 6 -45 1 -18 2 -17 15 5 8 14 14 34 14 45 0
20 -1 20 -8 0 -8 -19 -8 -19 -20 0 -11 19 -12 18 -7 -5z"/>
<path d="M807 4344 c-13 -13 -7 -42 9 -48 21 -8 24 -8 24 5 0 5 -4 7 -10 4 -5
-3 -10 -1 -10 4 0 6 7 11 16 11 9 0 14 6 12 13 -5 14 -31 21 -41 11z"/>
<path d="M861 4318 c1 -22 3 -26 6 -13 3 11 10 26 15 33 8 9 6 12 -6 12 -12 0
-16 -9 -15 -32z"/>
<path d="M904 4338 c-4 -6 -2 -14 4 -16 7 -2 12 -8 12 -13 0 -6 -6 -7 -12 -3
-10 6 -10 4 0 -7 10 -10 14 -11 25 0 10 10 8 15 -6 26 -13 10 -15 14 -5 18 9
4 9 6 1 6 -6 1 -15 -4 -19 -11z"/>
<path d="M2544 4337 c-2 -7 -3 -64 -2 -127 l3 -115 -45 -6 c-25 -4 -50 -2 -57
3 -9 7 -13 44 -13 117 0 58 -4 112 -9 119 -5 9 -30 12 -87 10 l-79 -3 -3 -105
c-3 -94 8 -329 24 -528 l6 -73 82 3 81 3 -1 130 c-1 86 2 132 10 137 19 13 96
9 101 -4 3 -7 8 -67 13 -133 l7 -120 80 0 80 0 -2 230 c-1 127 -4 285 -8 353
l-7 122 -84 0 c-60 0 -86 -4 -90 -13z"/>
<path d="M3885 4338 c-3 -7 -4 -168 -3 -358 l3 -345 145 -3 c167 -3 210 7 259
64 47 53 56 99 56 294 0 191 -9 239 -51 290 -48 57 -74 64 -246 68 -127 3
-159 1 -163 -10z m249 -169 c40 -18 48 -55 44 -192 -4 -151 -12 -167 -90 -167
l-48 0 0 178 c0 98 3 182 7 185 10 11 60 8 87 -4z"/>
<path d="M0 2703 l0 -1450 23 -21 c50 -47 115 -67 222 -67 161 0 225 40 291
178 31 68 69 109 128 140 37 19 61 22 231 27 172 5 194 7 237 28 68 34 126 97
167 182 36 74 36 76 36 205 0 114 -3 139 -26 200 -29 81 -71 148 -165 260 -48
59 -84 118 -135 225 -134 279 -135 280 -253 280 -76 0 -105 12 -128 53 -8 14
-15 89 -19 212 -7 224 -17 273 -94 430 -56 117 -110 194 -236 340 -83 96 -144
149 -227 197 l-52 30 0 -1449z"/>
<path d="M973 3979 c-164 -81 -262 -370 -173 -514 26 -42 48 -56 155 -99 48
-19 106 -46 128 -60 61 -35 134 -113 162 -171 23 -48 29 -77 56 -263 20 -142
94 -257 218 -341 76 -51 131 -71 197 -71 133 0 234 116 270 312 28 148 34 137
-188 375 -332 358 -359 396 -403 568 -37 141 -84 202 -199 256 -77 36 -160 39
-223 8z"/>
<path d="M2590 3425 l0 -165 105 0 105 0 0 40 0 40 -61 0 c-57 0 -60 1 -57 23
2 16 11 23 31 25 24 3 27 8 27 38 0 31 -2 34 -30 34 -23 0 -30 4 -30 20 0 16
8 19 58 22 l57 3 3 43 3 42 -105 0 -106 0 0 -165z"/>
<path d="M3345 3578 c-3 -7 -21 -80 -40 -163 -37 -159 -36 -170 15 -158 14 3
29 12 33 20 11 18 57 17 71 -3 8 -10 24 -14 47 -12 l36 3 -32 146 c-17 80 -35
154 -38 163 -8 20 -85 23 -92 4z m58 -205 c6 -28 4 -33 -13 -33 -17 0 -19 4
-14 28 13 52 18 53 27 5z"/>
<path d="M3547 3583 c-4 -3 -7 -77 -7 -163 l0 -157 31 -7 c17 -3 65 -6 105 -6
l74 0 0 46 0 47 -52 -5 c-29 -3 -59 -3 -65 -1 -10 3 -13 39 -13 129 l0 124
-33 0 c-19 0 -37 -3 -40 -7z"/>
<path d="M3790 3426 l0 -166 40 0 40 0 2 120 c1 66 2 139 3 163 l0 42 -42 3
-43 3 0 -165z"/>
<path d="M4259 3563 l-11 -28 -15 23 c-12 16 -25 22 -54 22 -47 0 -48 -7 -12
-80 21 -44 28 -75 32 -155 l6 -100 36 -3 36 -3 6 98 c4 83 10 109 38 167 35
74 32 86 -24 86 -21 0 -30 -7 -38 -27z"/>
<path d="M4398 3565 c2 -14 6 -25 7 -25 1 0 5 11 7 25 3 16 1 25 -7 25 -8 0
-10 -9 -7 -25z"/>
<path d="M4430 3568 c0 -17 6 -24 20 -24 15 0 20 7 19 26 0 14 -3 19 -6 12 -4
-10 -8 -10 -19 -1 -11 9 -14 7 -14 -13z"/>
<path d="M2250 3420 l0 -160 35 0 c34 0 35 1 37 43 0 23 1 50 0 60 -3 27 8 20
24 -18 13 -31 18 -35 53 -35 35 0 40 3 54 38 l16 37 0 -58 1 -58 38 3 37 3 3
153 3 152 -40 0 c-40 0 -41 0 -74 -72 l-34 -73 -36 73 c-37 71 -38 72 -77 72
l-40 0 0 -160z"/>
<path d="M3092 3543 c3 -33 7 -38 31 -41 l27 -3 0 -119 c0 -70 4 -121 10 -125
6 -4 24 -4 40 0 l30 7 0 119 0 119 30 0 c27 0 30 3 30 34 0 41 -12 46 -123 46
l-78 0 3 -37z"/>
<path d="M3914 3566 c-12 -32 0 -61 29 -64 l27 -3 0 -120 0 -119 40 0 40 0 0
119 0 120 33 3 c27 3 33 7 35 32 2 16 -2 32 -10 37 -7 5 -53 9 -101 9 -67 0
-89 -3 -93 -14z"/>
<path d="M2848 3513 c-3 -102 4 -238 12 -247 5 -5 20 -6 34 -2 24 6 26 11 26
63 0 64 6 63 35 -10 19 -48 24 -52 57 -55 34 -3 35 -2 41 35 4 21 7 91 7 156
l0 117 -40 0 -40 0 0 -52 c0 -57 -7 -56 -31 5 -15 39 -20 42 -58 45 l-41 3 -2
-58z"/>
<path d="M4677 3250 c-105 -33 -125 -53 -195 -194 -45 -88 -75 -135 -100 -157
-21 -16 -133 -77 -249 -135 -273 -135 -297 -162 -297 -329 0 -116 31 -195 113
-294 100 -120 120 -194 85 -306 -62 -197 65 -460 269 -555 202 -95 353 -68
411 72 9 20 29 113 46 207 l30 171 0 770 0 770 -27 -1 c-16 0 -54 -8 -86 -19z"/>
<path d="M2695 2709 c-186 -24 -305 -93 -305 -178 0 -13 23 -70 50 -125 79
-158 94 -260 65 -450 -8 -55 -15 -122 -15 -149 0 -44 4 -54 35 -83 45 -42 129
-62 193 -45 94 25 126 11 188 -81 55 -81 90 -112 164 -147 50 -23 67 -26 175
-26 113 0 123 2 175 29 105 54 144 108 142 196 -1 93 -193 639 -290 825 -60
114 -145 204 -216 228 -55 19 -236 21 -361 6z"/>
<path d="M1895 1793 c-52 -27 -115 -95 -163 -177 -68 -115 -108 -141 -299
-196 -57 -17 -122 -40 -145 -51 -65 -33 -123 -94 -154 -162 -27 -58 -29 -70
-29 -187 0 -114 3 -133 32 -213 50 -143 113 -236 243 -367 123 -123 201 -174
340 -220 101 -34 262 -39 370 -11 154 39 290 118 372 218 51 60 74 107 94 184
26 100 10 154 -83 280 -34 47 -70 102 -78 122 -22 54 -19 127 10 203 14 36 25
75 25 86 0 34 -45 66 -123 89 -52 15 -85 31 -104 51 -26 27 -28 36 -33 138 -5
103 -7 110 -36 147 -62 77 -165 105 -239 66z"/>
<path d="M3671 1184 c-92 -40 -198 -171 -243 -302 -38 -110 -33 -216 19 -373
63 -193 76 -329 44 -471 l-9 -38 654 0 654 0 0 396 0 396 -22 -6 c-131 -39
-328 -46 -443 -16 -148 38 -249 112 -378 279 -52 66 -98 114 -123 128 -45 26
-104 29 -153 7z"/>
<path d="M348 920 c-48 -14 -95 -49 -111 -81 -13 -29 -13 -38 6 -103 21 -75
18 -117 -14 -223 -7 -23 -9 -46 -5 -50 16 -17 105 -4 165 23 74 33 142 103
165 171 24 71 21 162 -7 204 -39 59 -119 83 -199 59z"/>
<path d="M484 321 c-28 -10 -105 -48 -170 -84 -113 -62 -225 -107 -266 -107
-10 0 -18 -4 -18 -10 0 -5 -7 -10 -15 -10 -12 0 -15 -13 -15 -55 l0 -55 480 0
480 0 -19 50 c-41 107 -133 216 -221 262 -60 31 -165 35 -236 9z"/>
</g>
</svg>
